<mxfile host="app.diagrams.net" modified="2023-04-23T11:27:15.099Z" agent="Mozilla/5.0 (Windows NT 10.0; Win64; x64) AppleWebKit/537.36 (KHTML, like Gecko) Chrome/111.0.0.0 Safari/537.36" etag="V15RNON-MT4nyHhdGV9d" version="21.2.1" type="github">
  <diagram name="Page-1" id="o_cC2SQZZcjEDPpgEXyU">
    <mxGraphModel dx="1434" dy="788" grid="1" gridSize="10" guides="1" tooltips="1" connect="1" arrows="1" fold="1" page="1" pageScale="1" pageWidth="827" pageHeight="1169" math="0" shadow="0">
      <root>
        <mxCell id="0" />
        <mxCell id="1" parent="0" />
        <mxCell id="-AVD-iecizfJ2BkBivFw-14" value="" style="shape=ext;double=1;rounded=1;whiteSpace=wrap;html=1;fillColor=none;" vertex="1" parent="1">
          <mxGeometry x="490" y="50" width="280" height="430" as="geometry" />
        </mxCell>
        <mxCell id="Y-N__Jg9_ESX2mBiEmXU-1" value="" style="sketch=0;outlineConnect=0;fontColor=#232F3E;gradientColor=none;fillColor=#232F3D;strokeColor=none;dashed=0;verticalLabelPosition=bottom;verticalAlign=top;align=center;html=1;fontSize=12;fontStyle=0;aspect=fixed;pointerEvents=1;shape=mxgraph.aws4.users;" parent="1" vertex="1">
          <mxGeometry x="50" y="70" width="78" height="78" as="geometry" />
        </mxCell>
        <mxCell id="Y-N__Jg9_ESX2mBiEmXU-2" value="" style="edgeStyle=orthogonalEdgeStyle;html=1;endArrow=block;elbow=vertical;startArrow=none;endFill=1;strokeColor=#545B64;rounded=0;shape=flexArrow;" parent="1" edge="1">
          <mxGeometry width="100" relative="1" as="geometry">
            <mxPoint x="140" y="88.5" as="sourcePoint" />
            <mxPoint x="240" y="88.5" as="targetPoint" />
          </mxGeometry>
        </mxCell>
        <mxCell id="Y-N__Jg9_ESX2mBiEmXU-4" value="" style="edgeStyle=orthogonalEdgeStyle;html=1;endArrow=block;elbow=vertical;startArrow=none;endFill=1;strokeColor=#545B64;rounded=0;shape=flexArrow;" parent="1" edge="1">
          <mxGeometry width="100" relative="1" as="geometry">
            <mxPoint x="240" y="128.5" as="sourcePoint" />
            <mxPoint x="140" y="128.5" as="targetPoint" />
          </mxGeometry>
        </mxCell>
        <mxCell id="Y-N__Jg9_ESX2mBiEmXU-9" value="" style="edgeStyle=orthogonalEdgeStyle;html=1;endArrow=block;elbow=vertical;startArrow=none;endFill=1;strokeColor=#545B64;rounded=0;shape=flexArrow;" parent="1" edge="1">
          <mxGeometry width="100" relative="1" as="geometry">
            <mxPoint x="380" y="88.5" as="sourcePoint" />
            <mxPoint x="480" y="88.5" as="targetPoint" />
          </mxGeometry>
        </mxCell>
        <mxCell id="Y-N__Jg9_ESX2mBiEmXU-10" value="" style="edgeStyle=orthogonalEdgeStyle;html=1;endArrow=block;elbow=vertical;startArrow=none;endFill=1;strokeColor=#545B64;rounded=0;shape=flexArrow;" parent="1" edge="1">
          <mxGeometry width="100" relative="1" as="geometry">
            <mxPoint x="480" y="128.5" as="sourcePoint" />
            <mxPoint x="380" y="128.5" as="targetPoint" />
          </mxGeometry>
        </mxCell>
        <object label="" tooltip="EC2" id="-AVD-iecizfJ2BkBivFw-1">
          <mxCell style="sketch=0;points=[[0,0,0],[0.25,0,0],[0.5,0,0],[0.75,0,0],[1,0,0],[0,1,0],[0.25,1,0],[0.5,1,0],[0.75,1,0],[1,1,0],[0,0.25,0],[0,0.5,0],[0,0.75,0],[1,0.25,0],[1,0.5,0],[1,0.75,0]];outlineConnect=0;fontColor=#232F3E;gradientColor=#F78E04;gradientDirection=north;fillColor=#D05C17;strokeColor=#ffffff;dashed=0;verticalLabelPosition=bottom;verticalAlign=top;align=center;html=1;fontSize=12;fontStyle=0;aspect=fixed;shape=mxgraph.aws4.resourceIcon;resIcon=mxgraph.aws4.ec2;noLabel=0;" vertex="1" parent="1">
            <mxGeometry x="541" y="70" width="78" height="78" as="geometry" />
          </mxCell>
        </object>
        <mxCell id="-AVD-iecizfJ2BkBivFw-17" value="" style="edgeStyle=orthogonalEdgeStyle;rounded=0;orthogonalLoop=1;jettySize=auto;html=1;startArrow=classic;startFill=1;" edge="1" parent="1" source="-AVD-iecizfJ2BkBivFw-2" target="-AVD-iecizfJ2BkBivFw-4">
          <mxGeometry relative="1" as="geometry" />
        </mxCell>
        <mxCell id="-AVD-iecizfJ2BkBivFw-2" value="" style="sketch=0;outlineConnect=0;fontColor=#232F3E;gradientColor=none;fillColor=#2E27AD;strokeColor=none;dashed=0;verticalLabelPosition=bottom;verticalAlign=top;align=center;html=1;fontSize=12;fontStyle=0;aspect=fixed;pointerEvents=1;shape=mxgraph.aws4.rds_mariadb_instance_alt;" vertex="1" parent="1">
          <mxGeometry x="641" y="290" width="78" height="78" as="geometry" />
        </mxCell>
        <mxCell id="-AVD-iecizfJ2BkBivFw-16" value="" style="edgeStyle=orthogonalEdgeStyle;rounded=0;orthogonalLoop=1;jettySize=auto;html=1;startArrow=classic;startFill=1;" edge="1" parent="1" source="-AVD-iecizfJ2BkBivFw-3" target="-AVD-iecizfJ2BkBivFw-2">
          <mxGeometry relative="1" as="geometry" />
        </mxCell>
        <mxCell id="-AVD-iecizfJ2BkBivFw-3" value="" style="dashed=0;outlineConnect=0;html=1;align=center;labelPosition=center;verticalLabelPosition=bottom;verticalAlign=top;shape=mxgraph.webicons.apache;gradientColor=#DFDEDE" vertex="1" parent="1">
          <mxGeometry x="640" y="180" width="80" height="84.4" as="geometry" />
        </mxCell>
        <mxCell id="-AVD-iecizfJ2BkBivFw-4" value="" style="shape=image;html=1;verticalAlign=top;verticalLabelPosition=bottom;labelBackgroundColor=#ffffff;imageAspect=0;aspect=fixed;image=https://cdn1.iconfinder.com/data/icons/hawcons/32/699163-icon-86-document-file-php-128.png" vertex="1" parent="1">
          <mxGeometry x="641" y="390" width="78" height="78" as="geometry" />
        </mxCell>
        <mxCell id="-AVD-iecizfJ2BkBivFw-15" value="" style="edgeStyle=orthogonalEdgeStyle;rounded=0;orthogonalLoop=1;jettySize=auto;html=1;startArrow=classic;startFill=1;" edge="1" parent="1" source="-AVD-iecizfJ2BkBivFw-5" target="-AVD-iecizfJ2BkBivFw-3">
          <mxGeometry relative="1" as="geometry" />
        </mxCell>
        <mxCell id="-AVD-iecizfJ2BkBivFw-5" value="" style="sketch=0;pointerEvents=1;shadow=0;dashed=0;html=1;strokeColor=none;fillColor=#DF8C42;labelPosition=center;verticalLabelPosition=bottom;verticalAlign=top;align=center;outlineConnect=0;shape=mxgraph.veeam2.linux;" vertex="1" parent="1">
          <mxGeometry x="641" y="70" width="78" height="78" as="geometry" />
        </mxCell>
        <mxCell id="-AVD-iecizfJ2BkBivFw-7" value="" style="sketch=0;points=[[0,0,0],[0.25,0,0],[0.5,0,0],[0.75,0,0],[1,0,0],[0,1,0],[0.25,1,0],[0.5,1,0],[0.75,1,0],[1,1,0],[0,0.25,0],[0,0.5,0],[0,0.75,0],[1,0.25,0],[1,0.5,0],[1,0.75,0]];points=[[0,0,0],[0.25,0,0],[0.5,0,0],[0.75,0,0],[1,0,0],[0,1,0],[0.25,1,0],[0.5,1,0],[0.75,1,0],[1,1,0],[0,0.25,0],[0,0.5,0],[0,0.75,0],[1,0.25,0],[1,0.5,0],[1,0.75,0]];outlineConnect=0;fontColor=#232F3E;gradientColor=#F34482;gradientDirection=north;fillColor=#BC1356;strokeColor=#ffffff;dashed=0;verticalLabelPosition=bottom;verticalAlign=top;align=center;html=1;fontSize=12;fontStyle=0;aspect=fixed;shape=mxgraph.aws4.resourceIcon;resIcon=mxgraph.aws4.cloudwatch_2;" vertex="1" parent="1">
          <mxGeometry x="290" y="358" width="78" height="78" as="geometry" />
        </mxCell>
        <mxCell id="-AVD-iecizfJ2BkBivFw-8" value="" style="sketch=0;outlineConnect=0;fontColor=#232F3E;gradientColor=none;fillColor=#B0084D;strokeColor=none;dashed=0;verticalLabelPosition=bottom;verticalAlign=top;align=center;html=1;fontSize=12;fontStyle=0;aspect=fixed;pointerEvents=1;shape=mxgraph.aws4.alarm;" vertex="1" parent="1">
          <mxGeometry x="150" y="358" width="78" height="78" as="geometry" />
        </mxCell>
        <mxCell id="-AVD-iecizfJ2BkBivFw-9" value="" style="outlineConnect=0;dashed=0;verticalLabelPosition=bottom;verticalAlign=top;align=center;html=1;shape=mxgraph.aws3.cloudfront;fillColor=#F58536;gradientColor=none;" vertex="1" parent="1">
          <mxGeometry x="260" y="62.5" width="76.5" height="93" as="geometry" />
        </mxCell>
        <mxCell id="-AVD-iecizfJ2BkBivFw-10" value="EC2 -&amp;nbsp;t2.micro" style="text;strokeColor=none;fillColor=none;html=1;fontSize=20;fontStyle=1;verticalAlign=middle;align=center;" vertex="1" parent="1">
          <mxGeometry x="519" y="148" width="100" height="40" as="geometry" />
        </mxCell>
        <mxCell id="-AVD-iecizfJ2BkBivFw-11" value="Users" style="text;strokeColor=none;fillColor=none;html=1;fontSize=24;fontStyle=1;verticalAlign=middle;align=center;" vertex="1" parent="1">
          <mxGeometry x="39" y="155.5" width="100" height="40" as="geometry" />
        </mxCell>
        <mxCell id="-AVD-iecizfJ2BkBivFw-12" value="CloudFront:&lt;br style=&quot;font-size: 15px;&quot;&gt;d2bs0axkh0sluy.cloudfront.net" style="text;strokeColor=none;fillColor=none;html=1;fontSize=15;fontStyle=1;verticalAlign=middle;align=center;imageWidth=18;imageHeight=18;arcSize=12;" vertex="1" parent="1">
          <mxGeometry x="248.25" y="162" width="100" height="40" as="geometry" />
        </mxCell>
        <mxCell id="-AVD-iecizfJ2BkBivFw-13" value="CloudWatch" style="text;strokeColor=none;fillColor=none;html=1;fontSize=24;fontStyle=1;verticalAlign=middle;align=center;" vertex="1" parent="1">
          <mxGeometry x="279" y="440" width="100" height="40" as="geometry" />
        </mxCell>
        <mxCell id="-AVD-iecizfJ2BkBivFw-19" value="" style="edgeStyle=orthogonalEdgeStyle;html=1;endArrow=block;elbow=vertical;startArrow=none;endFill=1;strokeColor=#545B64;rounded=0;shape=flexArrow;" edge="1" parent="1">
          <mxGeometry width="100" relative="1" as="geometry">
            <mxPoint x="380" y="380" as="sourcePoint" />
            <mxPoint x="480" y="380" as="targetPoint" />
          </mxGeometry>
        </mxCell>
        <mxCell id="-AVD-iecizfJ2BkBivFw-20" value="" style="edgeStyle=orthogonalEdgeStyle;html=1;endArrow=block;elbow=vertical;startArrow=none;endFill=1;strokeColor=#545B64;rounded=0;shape=flexArrow;" edge="1" parent="1">
          <mxGeometry width="100" relative="1" as="geometry">
            <mxPoint x="480" y="420" as="sourcePoint" />
            <mxPoint x="380" y="420" as="targetPoint" />
          </mxGeometry>
        </mxCell>
        <mxCell id="-AVD-iecizfJ2BkBivFw-23" value="" style="endArrow=classic;html=1;rounded=0;" edge="1" parent="1">
          <mxGeometry width="50" height="50" relative="1" as="geometry">
            <mxPoint x="275" y="396.5" as="sourcePoint" />
            <mxPoint x="240" y="397" as="targetPoint" />
          </mxGeometry>
        </mxCell>
        <mxCell id="-AVD-iecizfJ2BkBivFw-25" value="Alarm" style="text;strokeColor=none;fillColor=none;html=1;fontSize=24;fontStyle=1;verticalAlign=middle;align=center;" vertex="1" parent="1">
          <mxGeometry x="128" y="440" width="100" height="40" as="geometry" />
        </mxCell>
        <mxCell id="-AVD-iecizfJ2BkBivFw-26" value="" style="sketch=0;points=[[0,0,0],[0.25,0,0],[0.5,0,0],[0.75,0,0],[1,0,0],[0,1,0],[0.25,1,0],[0.5,1,0],[0.75,1,0],[1,1,0],[0,0.25,0],[0,0.5,0],[0,0.75,0],[1,0.25,0],[1,0.5,0],[1,0.75,0]];outlineConnect=0;fontColor=#232F3E;gradientColor=#FF4F8B;gradientDirection=north;fillColor=#BC1356;strokeColor=#ffffff;dashed=0;verticalLabelPosition=bottom;verticalAlign=top;align=center;html=1;fontSize=12;fontStyle=0;aspect=fixed;shape=mxgraph.aws4.resourceIcon;resIcon=mxgraph.aws4.sns;" vertex="1" parent="1">
          <mxGeometry x="20" y="362" width="78" height="78" as="geometry" />
        </mxCell>
        <mxCell id="-AVD-iecizfJ2BkBivFw-28" value="" style="endArrow=classic;html=1;rounded=0;" edge="1" parent="1">
          <mxGeometry width="50" height="50" relative="1" as="geometry">
            <mxPoint x="133" y="396.5" as="sourcePoint" />
            <mxPoint x="98" y="397" as="targetPoint" />
          </mxGeometry>
        </mxCell>
        <mxCell id="-AVD-iecizfJ2BkBivFw-29" value="SNS" style="text;strokeColor=none;fillColor=none;html=1;fontSize=24;fontStyle=1;verticalAlign=middle;align=center;" vertex="1" parent="1">
          <mxGeometry x="9" y="440" width="100" height="40" as="geometry" />
        </mxCell>
        <mxCell id="-AVD-iecizfJ2BkBivFw-30" value="" style="sketch=0;outlineConnect=0;fontColor=#232F3E;gradientColor=none;fillColor=#3F8624;strokeColor=none;dashed=0;verticalLabelPosition=bottom;verticalAlign=top;align=center;html=1;fontSize=12;fontStyle=0;aspect=fixed;pointerEvents=1;shape=mxgraph.aws4.backup_plan;" vertex="1" parent="1">
          <mxGeometry x="650" y="507" width="60" height="78" as="geometry" />
        </mxCell>
        <mxCell id="-AVD-iecizfJ2BkBivFw-31" value="" style="sketch=0;outlineConnect=0;fontColor=#232F3E;gradientColor=none;fillColor=#3F8624;strokeColor=none;dashed=0;verticalLabelPosition=bottom;verticalAlign=top;align=center;html=1;fontSize=12;fontStyle=0;aspect=fixed;pointerEvents=1;shape=mxgraph.aws4.backup_vault;" vertex="1" parent="1">
          <mxGeometry x="530" y="507" width="78" height="78" as="geometry" />
        </mxCell>
        <mxCell id="-AVD-iecizfJ2BkBivFw-32" value="" style="shape=ext;double=1;rounded=1;whiteSpace=wrap;html=1;fillColor=none;" vertex="1" parent="1">
          <mxGeometry x="490" y="480" width="280" height="150" as="geometry" />
        </mxCell>
        <mxCell id="-AVD-iecizfJ2BkBivFw-33" value="Backup Vault" style="text;strokeColor=none;fillColor=none;html=1;fontSize=16;fontStyle=1;verticalAlign=middle;align=center;" vertex="1" parent="1">
          <mxGeometry x="519" y="585" width="100" height="40" as="geometry" />
        </mxCell>
        <mxCell id="-AVD-iecizfJ2BkBivFw-34" value="Backup Plan" style="text;strokeColor=none;fillColor=none;html=1;fontSize=16;fontStyle=1;verticalAlign=middle;align=center;" vertex="1" parent="1">
          <mxGeometry x="639" y="585" width="100" height="40" as="geometry" />
        </mxCell>
      </root>
    </mxGraphModel>
  </diagram>
</mxfile>
